<!--?xml version="1.0" standalone="no"?-->

<svg version="1.0" xmlns="http://www.w3.org/2000/svg" width="300.000000pt" height="300.000000pt" viewBox="0 0 300.000000 300.000000" preserveAspectRatio="xMidYMid meet">
<g transform="translate(0.000000,300.000000) scale(0.100000,-0.100000)" fill="#7E508C" stroke="none">
<path class="node" id="node1" d="M1310 2980 c-157 -27 -262 -53 -335 -85 -145 -62 -191 -85 -265 -132
-154 -98 -242 -171 -329 -274 -183 -217 -280 -405 -347 -674 -26 -102 -28
-126 -28 -320 -1 -186 2 -221 22 -310 22 -91 62 -223 81 -264 107 -227 181
-338 319 -478 59 -59 121 -118 137 -130 194 -144 347 -220 565 -281 92 -26
103 -27 365 -27 252 0 276 2 360 24 165 43 308 105 470 204 49 30 167 128 236
197 68 68 189 211 189 224 0 3 15 30 34 59 19 30 49 85 67 123 17 38 35 77 40
86 16 31 52 143 66 203 8 33 18 78 24 100 18 76 22 382 5 475 -56 320 -132
489 -351 773 -56 72 -282 266 -331 283 -11 4 -26 13 -34 19 -50 41 -221 117
-345 154 -178 52 -464 76 -615 51z m-625 -934 c68 -29 83 -120 28 -178 -50
-53 -135 -45 -173 16 -63 104 31 209 145 162z m1765 -96 l0 -90 -705 0 -705 0
0 90 0 90 705 0 705 0 0 -90z m-1734 -346 c39 -41 43 -78 16 -134 -13 -26 -27
-37 -60 -47 -51 -14 -83 -5 -124 35 -22 20 -28 35 -28 70 0 37 6 50 34 78 29
29 41 34 81 34 42 0 52 -5 81 -36z m1734 -74 l0 -90 -705 0 -705 0 0 83 c0 46
3 87 7 90 3 4 321 7 705 7 l698 0 0 -90z m-1755 -325 c23 -11 36 -27 45 -55
15 -46 8 -78 -26 -119 -22 -27 -32 -31 -76 -31 -44 0 -54 4 -84 34 -28 28 -34
42 -34 76 0 34 6 48 34 76 39 39 85 45 141 19z m1755 -95 l0 -90 -705 0 -705
0 0 90 0 90 705 0 705 0 0 -90z"></path>
</g>
<g transform="translate(0.000000,300.000000) scale(0.100000,-0.100000)" fill="#FFFFFF" stroke="none">

<path class="node" id="node3" d="M584 2050 c-34 -14 -64 -59 -64 -98 0 -105 122 -159 193 -84 34 36
44 90 22 132 -25 48 -97 72 -151 50z"></path>
<path class="node" id="node4" d="M1040 1950 l0 -90 705 0 705 0 0 90 0 90 -705 0 -705 0 0 -90z"></path>
<path class="node" id="node5" d="M554 1606 c-28 -28 -34 -41 -34 -78 0 -35 6 -50 28 -70 41 -40 73
-49 124 -35 33 10 47 21 60 47 27 56 23 93 -16 134 -29 31 -39 36 -81 36 -40
0 -52 -5 -81 -34z"></path>
<path class="node" id="node6" d="M1047 1613 c-4 -3 -7 -44 -7 -90 l0 -83 705 0 705 0 0 90 0 90 -698
0 c-384 0 -702 -3 -705 -7z"></path>


<path class="node" id="node9" d="M554 1186 c-28 -28 -34 -42 -34 -76 0 -34 6 -48 34 -76 30 -30 40
-34 84 -34 44 0 54 4 76 31 34 41 41 73 26 119 -15 45 -56 70 -115 70 -29 0
-45 -8 -71 -34z"></path>
<path class="node" id="node10" d="M1040 1110 l0 -90 705 0 705 0 0 90 0 90 -705 0 -705 0 0 -90z"></path>
</g>
</svg>