<?xml version="1.0" standalone="no"?>
<!DOCTYPE svg PUBLIC "-//W3C//DTD SVG 20010904//EN"
 "http://www.w3.org/TR/2001/REC-SVG-20010904/DTD/svg10.dtd">
<svg version="1.0" xmlns="http://www.w3.org/2000/svg"
 width="700.000000pt" height="700.000000pt" viewBox="0 0 700.000000 700.000000"
 preserveAspectRatio="xMidYMid meet">
<metadata>
Created by potrace 1.11, written by Peter Selinger 2001-2013
</metadata>
<g transform="translate(0.000000,700.000000) scale(0.100000,-0.100000)"
fill="#000000" stroke="none">
<path d="M3217 6969 c-219 -15 -665 -110 -862 -184 -210 -79 -482 -207 -634
-300 -402 -243 -652 -455 -902 -765 -352 -435 -555 -827 -704 -1355 -83 -297
-92 -363 -100 -750 -12 -539 7 -715 120 -1105 69 -240 100 -322 190 -505 225
-457 375 -667 734 -1025 173 -173 254 -246 346 -312 369 -263 706 -432 1114
-557 223 -69 278 -79 481 -92 205 -13 1026 -5 1139 10 151 22 435 105 648 190
214 85 502 235 663 344 169 114 454 362 611 532 179 194 329 375 361 440 11
22 52 93 90 158 106 178 241 467 298 632 61 179 144 506 160 630 17 139 25
716 11 873 -13 144 -49 336 -105 557 -116 458 -295 808 -662 1295 -169 225
-575 594 -796 725 -46 27 -117 70 -158 95 -229 143 -644 310 -930 374 -342 76
-813 116 -1113 95z m-1645 -2185 c60 -20 121 -73 148 -130 31 -63 25 -172 -13
-237 -57 -97 -134 -140 -243 -135 -88 4 -153 40 -201 111 -92 137 -53 309 86
380 64 32 150 36 223 11z m4148 -234 l0 -210 -1650 0 -1650 0 0 210 0 210
1650 0 1650 0 0 -210z m-4135 -739 c80 -36 164 -155 165 -232 0 -92 -59 -203
-128 -238 -63 -32 -150 -44 -206 -27 -57 17 -148 85 -177 132 -26 43 -35 134
-19 193 15 55 119 164 171 179 57 17 150 13 194 -7z m4135 -241 l0 -210 -1651
0 -1652 0 7 183 c4 100 10 192 13 204 5 22 9 23 167 26 88 1 826 4 1639 5
l1477 2 0 -210z m-4156 -737 c89 -25 148 -85 170 -175 22 -90 9 -148 -48 -226
-58 -78 -85 -94 -171 -100 -108 -7 -149 9 -222 82 -63 65 -83 107 -83 176 0
70 20 112 84 175 86 85 150 102 270 68z m4156 -243 l0 -210 -1650 0 -1650 0 0
210 0 210 1650 0 1650 0 0 -210z"/>
</g>
</svg>
